<svg width="50" height="51" viewBox="0 0 50 51" fill="none" xmlns="http://www.w3.org/2000/svg">
<g clip-path="url(#clip0_403_165)">
<path d="M25 50.8182C38.8071 50.8182 50 39.6253 50 25.8182C50 12.0111 38.8071 0.818176 25 0.818176C11.1929 0.818176 0 12.0111 0 25.8182C0 39.6253 11.1929 50.8182 25 50.8182Z" fill="#F0F0F0"/>
<path d="M33.1198 19.2964H29.8489C29.876 19.6559 29.8913 20.0186 29.8913 20.3833C29.8913 22.8017 29.2868 25.1457 28.233 26.8143C27.9079 27.3289 27.3616 28.0557 26.6304 28.5459V19.2963H23.3695V28.5459C22.6384 28.0557 22.092 27.329 21.7669 26.8143C20.713 25.1457 20.1086 22.8017 20.1086 20.3833C20.1086 20.0186 20.124 19.6558 20.151 19.2964H16.8801C16.8591 19.6541 16.8477 20.0164 16.8477 20.3833C16.8477 27.088 20.4285 32.3399 24.9998 32.3399C29.5711 32.3399 33.152 27.088 33.152 20.3833C33.1522 20.0164 33.1407 19.6541 33.1198 19.2964V19.2964Z" fill="#D80027"/>
<path d="M10.3261 12.7747H13.5869V14.9486H16.8477V12.7747H20.1086V14.9486H23.3694V12.7747H26.6303V14.9486H29.8911V12.7747H33.1519V14.9486H36.4128V12.7747H39.6736V14.9486H47.519C43.4756 6.58624 34.9114 0.818176 25 0.818176C15.0886 0.818176 6.5244 6.58624 2.48065 14.9486H10.3261V12.7747Z" fill="#6DA544"/>
<path d="M39.6739 36.6877V38.8616H36.4131V36.6877H33.1522V38.8616H29.8914V36.6877H26.6306V38.8616H23.3697V36.6877H20.1089V38.8616H16.848V36.6877H13.5869V38.8616H10.3261V36.6877H2.48065C6.5244 45.0501 15.0885 50.8182 25 50.8182C34.9115 50.8182 43.4756 45.0501 47.5193 36.6877H39.6739Z" fill="#D80027"/>
</g>
<defs>
<clipPath id="clip0_403_165">
<rect width="50" height="50" fill="white" transform="translate(0 0.818176)"/>
</clipPath>
</defs>
</svg>
